{"title":"I, Me Aur Main 2013 DVDRip XviD 1CDRip ESub (ExD) - Hindi","uid":8390251,"size":617465364,"categoryP":"video","categoryS":"movies","magnet":"?xt=urn:btih:2674e9704b2cd35cd6358b301b9d4396f636e9b6&amp;dn=I%2C+Me+Aur+Main+2013+DVDRip+XviD+1CDRip+ESub+%28ExD%29+-+Hindi&amp;tr=udp%3A%2F%2Ftracker.openbittorrent.com%3A80&amp;tr=udp%3A%2F%2Fopen.demonii.com%3A1337&amp;tr=udp%3A%2F%2Ftracker.coppersurfer.tk%3A6969&amp;tr=udp%3A%2F%2Fexodus.desync.com%3A6969","seeders":1,"leechers":0,"uploader":"SJonam","files":1,"time":1366407137,"description":" &lt;a href=&quot;http://desibbrg.org/images/66952052392581364616.gif&quot; rel=&quot;nofollow&quot; target=&quot;_NEW&quot;&gt;http://desibbrg.org/images/66952052392581364616.gif&lt;/a&gt; &lt;a href=&quot;\nhttp://desibbrg.org/images/50318763919830088272.png&quot; rel=&quot;nofollow&quot; target=&quot;_NEW&quot;&gt;\nhttp://desibbrg.org/images/50318763919830088272.png&lt;/a&gt; &lt;a href=&quot;\nhttp://desibbrg.org/images/83213133772606199808.png&quot; rel=&quot;nofollow&quot; target=&quot;_NEW&quot;&gt;\nhttp://desibbrg.org/images/83213133772606199808.png&lt;/a&gt; &lt;a href=&quot;\nhttp://desibbrg.org/images/29031867225499452469.png&quot; rel=&quot;nofollow&quot; target=&quot;_NEW&quot;&gt;\nhttp://desibbrg.org/images/29031867225499452469.png&lt;/a&gt; &lt;a href=&quot;\nhttp://desibbrg.org/images/00850182768312059831.png&quot; rel=&quot;nofollow&quot; target=&quot;_NEW&quot;&gt;\nhttp://desibbrg.org/images/00850182768312059831.png&lt;/a&gt; &lt;a href=&quot;\nhttp://desibbrg.org/images/87620716392254775674.png&quot; rel=&quot;nofollow&quot; target=&quot;_NEW&quot;&gt;\nhttp://desibbrg.org/images/87620716392254775674.png&lt;/a&gt;\n\nMedia Info - \nVideo - \nFormat                                   : MPEG-4 Visual\nFormat profile                           : Advanced Simple@L5\nFormat settings, BVOP                    : 3\nFormat settings, QPel                    : No\nFormat settings, GMC                     : No warppoints\nFormat settings, Matrix                  : Default (MPEG)\nCodec ID                                 : XVID\nCodec ID/Hint                            : XviD\nDuration                                 : 1h 45mn\nBit rate                                 : 648 Kbps\nWidth                                    : 688 pixels\nHeight                                   : 288 pixels\nDisplay aspect ratio                     : 2.40:1\nFrame rate                               : 23.976 fps\nColor space                              : YUV\nChroma subsampling                       : 4:2:0\nBit depth                                : 8 bits\nScan type                                : Progressive\nCompression mode                         : Lossy\nBits/(Pixel*Frame)                       : 0.136\nStream size                              : 487 MiB (83%)\nWriting library                          : XviD 1.2.1 (UTC 2008-12-04)\n\nAudio - \nFormat                                   : AC-3\nFormat/Info                              : Audio Coding 3\nMode extension                           : CM (complete main)\nFormat settings, Endianness              : Big\nCodec ID                                 : 2000\nDuration                                 : 1h 45mn\nBit rate mode                            : Constant\nBit rate                                 : 128 Kbps\nChannel(s)                               : 6 channels\nChannel positions                        : Front: L C R, Side: L R, LFE\nSampling rate                            : 48.0 KHz\nBit depth                                : 16 bits\nCompression mode                         : Lossy\nStream size                              : 96.2 MiB (16%)\nAlignment                                : Aligned on interleaves\nInterleave, duration                     : 64 ms (1.53 video frames)\nInterleave, preload duration             : 512 ms\n\nRipper : K@rtik\n\nSeeding 24x7... Extreme Seeding...\n\n\nEnjoy!\n","torrent":{"xt":"urn:btih:2674e9704b2cd35cd6358b301b9d4396f636e9b6","amp;dn":"I%2C+Me+Aur+Main+2013+DVDRip+XviD+1CDRip+ESub+%28ExD%29+-+Hindi","amp;tr":["udp%3A%2F%2Ftracker.openbittorrent.com%3A80","udp%3A%2F%2Fopen.demonii.com%3A1337","udp%3A%2F%2Ftracker.coppersurfer.tk%3A6969","udp%3A%2F%2Fexodus.desync.com%3A6969"],"infoHash":"2674e9704b2cd35cd6358b301b9d4396f636e9b6","infoHashBuffer":{"type":"Buffer","data":[38,116,233,112,75,44,211,92,214,53,139,48,27,157,67,150,246,54,233,182]},"announce":[],"urlList":[]}}